<svg xmlns="http://www.w3.org/2000/svg" viewBox="0 0 74 84" fill="none">
  <path fill="#5F6672" d="M48.702 83.9325L74 78.463C74 78.463 64.8684 16.8135 64.8007 16.4084C64.7331 16.0032 64.3949 15.7331 64.0567 15.7331C63.7185 15.7331 57.2925 15.2605 57.2925 15.2605C57.2925 15.2605 52.8282 10.8039 52.287 10.3312C52.1517 10.1961 52.0165 10.1286 51.8812 10.0611L48.702 83.9325ZM50.7989 9.92605C50.7313 9.92605 50.596 9.99357 50.5283 9.99357C50.4607 9.99357 49.5137 10.2637 48.0256 10.7363C46.5375 6.4148 43.8995 2.43087 39.2322 2.43087C39.0969 2.43087 38.9616 2.43087 38.8263 2.43087C37.4735 0.742769 35.8501 0 34.4296 0C23.5393 0 18.3309 13.5723 16.7075 20.4598C12.5137 21.7428 9.46984 22.6881 9.13163 22.8232C6.76417 23.5659 6.69653 23.6334 6.42596 25.8617C6.15539 27.4823 0 75.0868 0 75.0868L47.5521 84L50.7989 9.92605ZM38.4205 13.2347C38.4205 13.3698 38.4205 13.5723 38.4205 13.7074C35.7825 14.5177 32.8739 15.3955 30.0329 16.2733C31.6563 10.0611 34.7002 7.02252 37.3382 5.87461C38.0146 7.63023 38.4205 9.99357 38.4205 13.2347ZM34.0914 2.90354C34.5649 2.90354 35.0384 3.03859 35.5119 3.37621C32.0622 4.99678 28.2742 9.11576 26.7185 17.3537C24.4186 18.0965 22.1865 18.7717 20.0896 19.3794C21.9159 13.0997 26.3126 2.90354 34.0914 2.90354ZM35.9854 39.5691C35.9854 39.5691 33.1444 38.0836 29.7623 38.0836C24.6892 38.0836 24.4863 41.2572 24.4863 42.0675C24.4863 46.3891 35.8501 48.0772 35.8501 58.2733C35.8501 66.3087 30.777 71.4405 23.8775 71.4405C15.6252 71.4405 11.4314 66.3087 11.4314 66.3087L13.6636 59.0161C13.6636 59.0161 17.9927 62.7299 21.6453 62.7299C24.0128 62.7299 25.0274 60.8392 25.0274 59.4888C25.0274 53.8167 15.6929 53.54666 15.6929 44.2283C15.6929 36.3955 21.3071 28.7653 32.7386 28.7653C37.1353 28.7653 39.2998 30.0482 39.2998 30.0482L35.9854 39.5691ZM40.3144 5.40193C42.7495 5.67203 44.3053 8.44052 45.3199 11.5466C44.1024 11.9518 42.7495 12.3569 41.2614 12.8296C41.2614 12.5595 41.2614 12.2894 41.2614 11.9518C41.2614 9.31834 40.9232 7.15756 40.3144 5.40193Z"/>
</svg>
