<svg xmlns="http://www.w3.org/2000/svg" viewBox="0 0 64 64">
  <rect width="64" height="64" rx="12" fill="#111211"/>
  <g transform="translate(7, 7) scale(1)">
    <svg viewBox="0 0 50 50" width="50" height="50">
      <g transform="translate(0,50) scale(0.1,-0.1)" fill="#D6BA7D">
        <path d="M222 368 c-13 -13 -16 -38 -6 -38 4 0 13 8 20 18 10 13 15 14 25 5 10 -10 9 -16 -4 -31 -9 -10 -17 -25 -17 -33 0 -8 -44 -34 -110 -62 -120 -54 -140 -68 -120 -92 19 -22 461 -22 480 0 19 23 1 37 -120 91 -60 27 -110 54 -110 60 0 6 7 17 15 24 28 23 11 70 -25 70 -9 0 -21 -5 -28 -12z m147 -163 c61 -27 111 -53 111 -57 0 -5 -103 -8 -230 -8 -126 0 -230 3 -230 8 0 7 220 111 231 109 3 -1 56 -24 118 -52z"/>
      </g>
    </svg>
  </g>
</svg>
