<svg width="123" height="77" viewBox="0 0 123 77" fill="none" xmlns="http://www.w3.org/2000/svg">
<path d="M61.4386 38.0153C68.2371 39.3353 72.9988 45.0503 72.0863 51.8189C71.3368 57.3752 66.4108 61.6537 60.7851 62.433C60.233 62.5093 59.4642 62.5474 58.4788 62.5474C55.8895 62.5489 53.3007 62.5507 50.7122 62.5529C50.4762 62.5529 50.2928 62.507 50.1616 62.4153C49.6169 62.0345 49.9835 61.636 49.9835 61.1685C49.9851 53.8571 49.9854 46.545 49.9847 39.232C49.9847 39.1462 49.9588 38.9856 49.9071 38.7502C49.8309 38.4005 49.9847 38.1097 49.9847 37.8066C49.9854 30.4885 49.9851 23.1704 49.9835 15.8523C49.9835 15.7494 49.9546 15.6029 49.8968 15.4127C49.7522 14.9398 50.0356 14.4802 50.5781 14.4802C52.2612 14.4794 53.9441 14.4798 55.6266 14.4813C56.5141 14.482 57.2404 14.5298 57.8057 14.6245C65.4751 15.9056 70.8857 23.1183 68.369 30.5584C67.2667 33.8145 64.625 36.4422 61.4258 37.9254C61.4164 37.9298 61.4086 37.9369 61.4037 37.9458C61.3987 37.9547 61.3968 37.9649 61.3982 37.9748C61.3997 37.9848 61.4042 37.994 61.4115 38.0014C61.4187 38.0086 61.4283 38.0135 61.4386 38.0153ZM51.5427 15.9755L51.6606 37.7056C51.6609 37.713 51.6642 37.7201 51.6698 37.7253C51.6754 37.7305 51.6829 37.7333 51.6906 37.7333L55.3779 37.7156C56.9609 37.7077 58.527 37.4187 59.9866 36.865C61.4462 36.3115 62.7707 35.5042 63.8846 34.4891C64.9984 33.4741 65.8799 32.2714 66.4784 30.9495C67.0769 29.6276 67.381 28.2125 67.3731 26.7851V26.7362C67.3573 23.8535 66.0722 21.0954 63.8006 19.0684C61.5289 17.0415 58.4568 15.9118 55.2599 15.9278L51.5727 15.9467C51.5647 15.9467 51.5571 15.9497 51.5514 15.9551C51.5458 15.9605 51.5427 15.9679 51.5427 15.9755ZM51.5831 39.3298L51.6225 60.991C51.6225 61.0084 51.6296 61.0249 51.6424 61.0372C51.6552 61.0495 51.6725 61.0564 51.6906 61.0564L58.5193 61.0454C61.7294 61.04 64.806 59.8913 67.0722 57.8518C69.3384 55.8123 70.6087 53.0493 70.6035 50.1703V50.0881C70.6009 48.6627 70.2853 47.2517 69.6747 45.9356C69.064 44.6196 68.1704 43.4244 67.0445 42.4183C65.9188 41.4122 64.583 40.6148 63.1135 40.0717C61.644 39.5287 60.0695 39.2505 58.4799 39.2532L51.6514 39.2642C51.6332 39.2642 51.6159 39.2711 51.6031 39.2834C51.5903 39.2957 51.5831 39.3124 51.5831 39.3298Z" fill="#696E71"/>
<path d="M88.3168 61.1743C73.8048 56.314 67.1358 40.1347 74.4467 27.0772C78.1756 20.4185 84.8342 15.8114 92.6933 14.6191C94.4961 14.346 96.5071 14.4781 98.3541 14.4781C99.096 14.4781 99.752 14.521 100.323 14.6068C112.366 16.4086 120.977 25.8782 121.66 37.406C121.703 38.1454 121.701 38.8844 121.65 39.623C120.977 49.6986 114.355 58.138 104.342 61.3264C99.1093 62.9915 93.51 62.9128 88.3168 61.1743ZM120.059 38.4307C120.059 32.449 117.583 26.7123 113.176 22.4827C108.77 18.253 102.793 15.8769 96.5615 15.8769C93.4753 15.8769 90.4197 16.4602 87.5689 17.5937C84.718 18.7271 82.1277 20.3884 79.9458 22.4827C77.7638 24.577 76.0329 27.0633 74.8521 29.7997C73.6712 32.536 73.0634 35.4688 73.0634 38.4307C73.0634 41.3925 73.6712 44.3252 74.8521 47.0616C76.0329 49.798 77.7638 52.2842 79.9458 54.3786C82.1277 56.4729 84.718 58.1342 87.5689 59.2676C90.4197 60.401 93.4753 60.9844 96.5615 60.9844C102.793 60.9844 108.77 58.6082 113.176 54.3786C117.583 50.1489 120.059 44.4123 120.059 38.4307Z" fill="#696E71"/>
<path d="M11.4314 26.7552C15.9526 30.7084 13.7006 37.5236 7.82041 38.7548C7.29685 38.8643 6.53041 38.922 5.52108 38.9279C4.38684 38.9346 3.22137 38.9358 2.02466 38.9313C1.95989 38.9313 1.92751 38.9624 1.92751 39.0245C1.92674 43.138 1.92712 47.27 1.92866 51.4204C1.92866 52.2098 1.00222 52.4341 1.00222 51.6802C1.00222 42.7961 1.00222 33.9408 1.00222 25.1144C1.00222 25.0249 1.03938 24.9391 1.10554 24.8757C1.1717 24.8124 1.26142 24.7769 1.35499 24.7769C2.81617 24.7776 4.27927 24.7776 5.7443 24.7769C7.88981 24.7758 9.83989 25.362 11.4314 26.7552ZM1.95989 25.7716L1.89281 37.921C1.89266 37.9285 1.89407 37.9361 1.89696 37.943C1.89986 37.9501 1.90418 37.9564 1.90967 37.9618C1.91516 37.9672 1.92172 37.9715 1.92895 37.9744C1.93619 37.9773 1.94395 37.9788 1.9518 37.9788L6.00454 37.9987C6.89384 38.0033 7.7753 37.8504 8.59858 37.5487C9.42186 37.2471 10.1709 36.8028 10.8029 36.241C11.4348 35.6791 11.9373 35.0108 12.2817 34.2744C12.6261 33.5379 12.8056 32.7475 12.81 31.9484V31.8552C12.8145 31.0561 12.6437 30.264 12.3075 29.5241C11.9711 28.784 11.4761 28.1107 10.8504 27.5425C10.2246 26.9743 9.48051 26.5223 8.66065 26.2123C7.84068 25.9024 6.96094 25.7406 6.07163 25.736L2.01888 25.7161C2.00343 25.7161 1.9886 25.7219 1.97757 25.7323C1.96654 25.7426 1.9602 25.7567 1.95989 25.7716Z" fill="#696E71"/>
<path d="M26.0927 25.7297C25.3364 25.7231 25.3988 24.7783 26.1748 24.7783C32.2355 24.7769 38.2965 24.7765 44.3578 24.7772C45.1131 24.7783 45.2277 25.7486 44.3417 25.7486C41.5126 25.7486 38.6997 25.7486 35.9031 25.7486C35.8724 25.7486 35.843 25.7602 35.8213 25.7811C35.7996 25.8019 35.7874 25.8301 35.7874 25.8596C35.7874 34.3634 35.7874 42.8737 35.7874 51.3908C35.7874 51.6284 35.7608 51.7919 35.7076 51.8815C35.4763 52.2722 34.8043 52.119 34.8043 51.5973C34.8043 43.0092 34.8043 34.4307 34.8043 25.8618C34.8043 25.846 34.801 25.8303 34.7947 25.8157C34.7883 25.8011 34.7791 25.7878 34.7673 25.7767C34.7556 25.7655 34.7417 25.7567 34.7264 25.7507C34.7111 25.7448 34.6948 25.7418 34.6783 25.7419C31.8199 25.7597 28.958 25.7556 26.0927 25.7297Z" fill="#696E71"/>
<path d="M25.3499 42.9554H14.5078C14.4765 42.9554 14.446 42.9648 14.4204 42.9823C14.3949 42.9998 14.3758 43.0245 14.3656 43.053C13.3848 45.7996 12.3986 48.5509 11.407 51.3071C11.267 51.6967 11.2659 51.9786 10.801 52.1429C10.7643 52.1566 10.7234 52.1573 10.6853 52.1452C10.1556 51.9764 10.2181 51.5957 10.3742 51.1594C13.3428 42.922 16.3079 34.6836 19.2696 26.4441C19.3436 26.2369 19.4138 26.0282 19.4802 25.818C19.4898 25.7888 19.511 25.7642 19.5391 25.7492C19.7751 25.63 20.0068 25.6323 20.2342 25.7559C20.2712 25.7758 20.2963 25.8051 20.3094 25.8436C23.3968 34.3968 26.4846 42.9498 29.5727 51.5024C29.7589 52.0164 28.844 52.5049 28.5595 51.7089C27.5247 48.8062 26.4807 45.9061 25.4274 43.0087C25.422 42.9932 25.4117 42.9797 25.3978 42.9701C25.3839 42.9606 25.3671 42.9554 25.3499 42.9554ZM14.8028 41.8019C14.8011 41.8069 14.8008 41.8121 14.8016 41.8172C14.8025 41.8223 14.8046 41.8272 14.8077 41.8314C14.8109 41.8356 14.815 41.839 14.8197 41.8414C14.8245 41.8438 14.8298 41.8451 14.8352 41.8452H24.9832C24.9887 41.8451 24.9939 41.8438 24.9987 41.8414C25.0034 41.839 25.0076 41.8356 25.0108 41.8314C25.0138 41.8272 25.0159 41.8223 25.0168 41.8172C25.0176 41.8121 25.0173 41.8069 25.0156 41.8019L19.9416 27.7141C19.9391 27.7078 19.9346 27.7024 19.9289 27.6986C19.9231 27.6949 19.9162 27.6928 19.9092 27.6928C19.9022 27.6928 19.8953 27.6949 19.8896 27.6986C19.8838 27.7024 19.8793 27.7078 19.8768 27.7141L14.8028 41.8019Z" fill="#696E71"/>
</svg>
