<svg width="52" height="80" viewBox="0 0 52 80" fill="none" xmlns="http://www.w3.org/2000/svg">
<g clip-path="url(#clip0_143_8025)">
<path d="M20.7484 28.5161C20.2581 28.7742 18.7871 29.3161 17.471 29.7032L15.1226 30.4258L15.6129 31.0452C16.2065 31.8194 16.2323 32.671 15.6903 33.7548C14.9161 35.2258 10.6323 41.9355 10.4516 41.9355C10.1161 41.9355 7.07097 35.3548 7.07097 34.6323C7.07097 34.2194 7.2 33.6774 7.32903 33.3935C7.5871 32.929 7.48387 32.9032 3.79355 32.9032H0L1.31613 34.1161C2.0129 34.8129 2.94194 35.9226 3.32903 36.6452C3.71613 37.3419 4.95484 39.329 6.06452 41.0323L8.10323 44.1548V47.2258C8.10323 49.8581 8.02581 50.4516 7.5871 51.1484L7.07097 52H9.93548H12.7742L12.3871 51.4323C12.0516 50.9677 11.9742 50.0903 11.9742 47.329V43.8194L15.6645 37.6774C17.7032 34.2968 19.9742 30.7355 20.6968 29.7548C21.4452 28.8 21.9613 28 21.8581 28C21.729 28.0258 21.2387 28.2323 20.7484 28.5161Z" fill="#696E71"/>
<path d="M19.9746 33.0839C19.9746 33.2129 20.1553 33.5226 20.3617 33.7806C20.9294 34.529 20.9294 50.3742 20.3617 51.1226C20.1553 51.3806 19.9746 51.6903 19.9746 51.7935C19.9746 51.9226 21.2649 52 22.8391 52H25.7036L25.2907 51.3548C24.9553 50.8387 24.8778 49.9097 24.9036 45.7548V40.7742L25.4198 42.1935C25.6778 42.9677 26.5553 45.4968 27.3553 47.7935C28.7488 51.8452 28.8262 52 29.523 52C30.194 52 30.2714 51.8452 32.3617 45.9871C33.5488 42.7097 34.6069 39.8968 34.7359 39.7419C34.8649 39.6129 34.9424 41.7806 34.9424 44.929C34.9165 49.8065 34.8649 50.4516 34.4004 51.2L33.9101 52H36.7488H39.5875L39.0714 51.1484C38.5811 50.3742 38.5553 49.8323 38.5553 42.5806C38.5553 35.4839 38.6069 34.7355 39.0456 33.8581L39.5359 32.9032H36.4649H33.4198L33.9617 33.8064L34.4778 34.7355L33.1617 38.271C30.6585 44.9548 29.8585 46.9161 29.7294 46.6839C29.4198 46.1677 25.9101 35.2 25.9101 34.7613C25.9101 34.5032 26.0907 34.0645 26.2972 33.7806C26.5036 33.5226 26.6843 33.2129 26.6843 33.0839C26.6843 32.9806 25.1875 32.9032 23.3294 32.9032C21.4972 32.9032 19.9746 32.9806 19.9746 33.0839Z" fill="#696E71"/>
<path d="M42.2961 33.6774C42.8897 34.8387 42.8639 50.4258 42.2703 51.3548L41.8574 52H44.7219H47.5865L47.1736 51.3548C46.8123 50.7871 46.7606 49.7032 46.7865 42.4C46.8123 35.4581 46.8897 33.9871 47.1994 33.4968L47.5865 32.9032H44.7477H41.8832L42.2961 33.6774Z" fill="#696E71"/>
<path d="M48.7991 33.6256C47.8701 34.6578 48.5927 36.2578 50.012 36.2578C51.5088 36.2578 52.3088 34.5546 51.2507 33.5997C50.6056 33.032 49.3152 33.0578 48.7991 33.6256ZM50.7088 33.6772C51.2765 33.9868 51.3797 35.1997 50.8894 35.6901C50.3991 36.1804 49.6507 36.0772 49.6507 35.4836C49.6507 34.8385 49.8572 34.8385 50.3475 35.4062C50.683 35.8449 50.7088 35.8191 50.5539 35.303C50.4765 34.9933 50.5281 34.6836 50.683 34.5804C51.0959 34.3223 50.7088 33.9352 50.012 33.9352C49.4701 33.9352 49.3927 34.0643 49.3927 34.8643C49.3927 35.4062 49.2894 35.7159 49.1346 35.6127C48.6959 35.3546 48.8507 33.9868 49.341 33.703C49.9088 33.3675 50.0894 33.3675 50.7088 33.6772ZM50.3475 34.3481C50.2701 34.4256 50.0378 34.4514 49.8572 34.3739C49.6507 34.2965 49.7281 34.2191 50.012 34.2191C50.2959 34.1933 50.4507 34.2707 50.3475 34.3481Z" fill="#696E71"/>
</g>
<defs>
<clipPath id="clip0_143_8025">
<rect width="51.7338" height="80" fill="white"/>
</clipPath>
</defs>
</svg>
